<svg width="1295" height="463" viewBox="0 0 1295 463" fill="none" xmlns="http://www.w3.org/2000/svg" xmlns:xlink="http://www.w3.org/1999/xlink">
<g clip-path="url(#clip0)">
<path d="M875.4 374.2L883.5 453.4L904 455.4V462.3H714.4V455.4L735 453.4L743 374.2H875.4Z" fill="#CAE7F2"/>
<path d="M741.8 382.7L743 371.2H875.4L876.7 382.6L741.8 382.7Z" fill="#A8B7BD"/>
<path d="M1085.3 0H527.2C519.4 0 513.4 6.1 513.4 13.9V54.1V318H1099.4V54.2V13.9C1099.4 6.1 1093.1 0 1085.3 0Z" fill="#202631"/>
<path d="M1080.8 46.1001H532.1V318H1080.8V46.1001Z" fill="white"/>
<path d="M513 317.6V357.8C513 365.7 519.4 372.1 527.2 372.1H1085.3C1093.1 372.1 1099.5 365.7 1099.5 357.8V317.6H513Z" fill="#CAE7F2"/>
<path d="M862.301 281L881.501 261.8L899.401 279.8L931.601 247.7" stroke="#F7CE55" stroke-width="5.3892" stroke-miterlimit="10" stroke-linecap="round" stroke-linejoin="round"/>
<path d="M935.4 292H851.4V244" stroke="#496A89" stroke-width="6" stroke-miterlimit="10" stroke-linecap="round" stroke-linejoin="round"/>
<path d="M793.2 240.3H644V250.8H793.2V240.3Z" fill="#EFEEEE"/>
<path d="M793.2 255.3H644V265.8H793.2V255.3Z" fill="#EFEEEE"/>
<path d="M793.2 270.3H644V280.8H793.2V270.3Z" fill="#EFEEEE"/>
<path d="M730.2 285.3H644V295.8H730.2V285.3Z" fill="#EFEEEE"/>
<path d="M717 200.2L694.5 212.8C688.4 202 690.7 189.1 699.9 180.9L717 200.2Z" fill="#EB6131" stroke="white" stroke-width="3" stroke-miterlimit="10"/>
<path d="M717.001 200.2L742.501 197.3C744.001 211.4 733.901 224.1 719.801 225.7C709.301 226.9 699.801 222 694.601 212.7L717.001 200.2Z" fill="#F1A033" stroke="white" stroke-width="3" stroke-miterlimit="10"/>
<path d="M717.2 200.3L700.2 181C710.8 171.6 727.1 172.7 736.4 183.3C740 187.3 742.1 192.1 742.7 197.4L717.2 200.3Z" fill="#1D465E" stroke="white" stroke-width="3" stroke-miterlimit="10"/>
<path d="M969.5 169.3H819.5V179.8H969.5V169.3Z" fill="#EFEEEE"/>
<path d="M969.5 184.3H819.5V194.8H969.5V184.3Z" fill="#EFEEEE"/>
<path d="M969.5 199.3H819.5V209.8H969.5V199.3Z" fill="#EFEEEE"/>
<path d="M906.1 214.3H819.5V224.8H906.1V214.3Z" fill="#EFEEEE"/>
<path d="M935.4 151H851.4V103" stroke="#496A89" stroke-width="6" stroke-miterlimit="10" stroke-linecap="round" stroke-linejoin="round"/>
<path d="M925.101 117.1H909.801V148.1H925.101V117.1Z" fill="#EC502D"/>
<path d="M901.8 127H886.5V148.1H901.8V127Z" fill="#1D465E"/>
<path d="M878.2 108.8H863V148.1H878.2V108.8Z" fill="#F7CE55"/>
<path d="M793.4 98.8H643.4V109.3H793.4V98.8Z" fill="#EFEEEE"/>
<path d="M793.4 113.8H643.4V124.3H793.4V113.8Z" fill="#EFEEEE"/>
<path d="M793.4 128.8H643.4V139.3H793.4V128.8Z" fill="#EFEEEE"/>
<path d="M730 143.8H643.4V154.3H730V143.8Z" fill="#EFEEEE"/>
<path d="M1080.8 46.1001H532.1V73.0001H1080.8V46.1001Z" fill="#48505F"/>
<path d="M1001.9 53.3H856.899V65.7H1001.9V53.3Z" fill="white"/>
<path d="M1014.1 53.3H1001.8V65.7H1014.1V53.3Z" fill="#338C9C"/>
<path d="M1080.8 21.1001H532.1V46.1001H1080.8V21.1001Z" fill="#CAE7F2"/>
<path d="M554.9 28.1001H543.3V39.1001H554.9V28.1001Z" fill="#BCBDBF"/>
<path d="M572.499 28.1001H560.899V39.1001H572.499V28.1001Z" fill="#BCBDBF"/>
<path d="M590.1 28.1001H578.5V39.1001H590.1V28.1001Z" fill="#BCBDBF"/>
<path d="M699.699 28.1001H631.699V39.1001H699.699V28.1001Z" fill="#BCBDBF"/>
<path d="M776.8 28.1001H708.8V39.1001H776.8V28.1001Z" fill="#BCBDBF"/>
<path d="M1068.1 28.1001H785.899V39.1001H1068.1V28.1001Z" fill="#BCBDBF"/>
<path d="M1078.7 429.8H983.1V461.4H1078.7V429.8Z" fill="url(#paint0_linear)"/>
<path d="M1016.1 435.5C1038 433.2 1043.9 450.3 1058.4 453.6C1067.4 455.6 1072.8 452.2 1072.5 445.8C1064.3 436.2 1048.7 429.8 1030.9 429.8C1008.8 429.8 990.2 439.7 984.8 453.1C987.8 447.5 995.9 437.6 1016.1 435.5Z" fill="#CAE7F2"/>
<path d="M474.9 220.5H413.9V460.9H474.9V220.5Z" fill="#48505F"/>
<path d="M297.7 460.9H413.9V220.5L297.7 335.7V460.9Z" fill="#332D2F"/>
<path d="M398.2 222.2H324.3V458.9H398.2V222.2Z" fill="#A8B7BD"/>
<path d="M390.1 228.5H303.4V458.9H390.1V228.5Z" fill="#C89761"/>
<path d="M326.8 222.2H252.9V458.9H326.8V222.2Z" fill="#E6E6E6"/>
<path d="M318.7 228.5H232V458.9H318.7V228.5Z" fill="#808184"/>
<path d="M325.6 228.5H318.7V458.9H325.6V228.5Z" fill="#A9CCDE"/>
<path d="M335.3 222.2H326.8V458.9H335.3V222.2Z" fill="#F0ECE9"/>
<path d="M403.5 220.5H342.5V460.9H403.5V220.5Z" fill="#48505F"/>
<path d="M226.3 460.9H342.5V220.5L226.3 335.7V460.9Z" fill="#332D2F"/>
<path d="M396.5 386.2H349.5V414.8H396.5V386.2Z" fill="#CBC9CA"/>
<path d="M390.9 391.9H355.2V409.3H390.9V391.9Z" fill="#48505F"/>
<path d="M584.899 447.8H522.599V459.3H584.899V447.8Z" fill="#CAE7F2"/>
<path d="M520.199 446.2H404.999V460.9H520.199V446.2Z" fill="#332D2F"/>
<path d="M495.299 450.4H444.999V456.7H495.299V450.4Z" fill="#CBC9CA"/>
<path d="M438.299 450.4H429.899V456.7H438.299V450.4Z" fill="#CBC9CA"/>
<path d="M588.099 446.2H522.599V448.6H588.099V446.2Z" fill="#79858E"/>
<path d="M522.599 446.2H520.199V460.9H522.599V446.2Z" fill="#79858E"/>
<path d="M588.099 458.4H522.599V460.8H588.099V458.4Z" fill="#79858E"/>
<path d="M594.799 433.1H532.499V444.6H594.799V433.1Z" fill="#CAE7F2"/>
<path d="M530.099 431.5H414.899V446.2H530.099V431.5Z" fill="#676767"/>
<path d="M492.399 436.8H452.399V441H492.399V436.8Z" fill="#CBC9CA"/>
<path d="M433.5 431.5H429.8V446.2H433.5V431.5Z" fill="#CBC7BC"/>
<path d="M440.599 431.5H436.899V446.2H440.599V431.5Z" fill="#CBC7BC"/>
<path d="M447.8 431.5H444.1V446.2H447.8V431.5Z" fill="#CBC7BC"/>
<path d="M501.8 431.5H498.1V446.2H501.8V431.5Z" fill="#CBC7BC"/>
<path d="M508.899 431.5H505.199V446.2H508.899V431.5Z" fill="#CBC7BC"/>
<path d="M516 431.5H512.3V446.2H516V431.5Z" fill="#CBC7BC"/>
<path d="M597.999 431.5H532.499V433.9H597.999V431.5Z" fill="#A9AAAA"/>
<path d="M532.399 431.5H529.999V446.2H532.399V431.5Z" fill="#A9AAAA"/>
<path d="M597.999 443.8H532.499V446.2H597.999V443.8Z" fill="#A9AAAA"/>
<path d="M583.999 410.6H518.499V413H583.999V410.6Z" fill="#4C95C8"/>
<path d="M580.799 412.2H518.499V429.9H580.799V412.2Z" fill="#CAE7F2"/>
<path d="M516.099 410.6H400.899V431.6H516.099V410.6Z" fill="#3C72A0"/>
<path d="M442.8 414.7H438.6V427.3H442.8V414.7Z" fill="#BCBDBF"/>
<path d="M480 414.7H475.8V427.3H480V414.7Z" fill="#A8B7BD"/>
<path d="M459.9 414.7H449.3V427.3H459.9V414.7Z" fill="#E6E6E6"/>
<path d="M471.399 414.7H464.899V427.3H471.399V414.7Z" fill="#D1D2D3"/>
<path d="M434.2 414.7H425.8V427.3H434.2V414.7Z" fill="#808184"/>
<path d="M490.199 414.7H483.999V427.3H490.199V414.7Z" fill="#929497"/>
<path d="M518.5 410.6H516.1V431.6H518.5V410.6Z" fill="#4C95C8"/>
<path d="M583.999 429.1H518.499V431.5H583.999V429.1Z" fill="#4C95C8"/>
<path d="M594.799 393.4H532.499V408.9H594.799V393.4Z" fill="#CAE7F2"/>
<path d="M530.099 391.8H414.899V410.5H530.099V391.8Z" fill="#676767"/>
<path d="M510.899 391.8H506.899V410.5H510.899V391.8Z" fill="#E6E6E6"/>
<path d="M435.6 391.8H431.6V410.5H435.6V391.8Z" fill="#D1D2D3"/>
<path d="M597.999 391.8H532.499V394.2H597.999V391.8Z" fill="#808184"/>
<path d="M532.399 391.8H529.999V410.5H532.399V391.8Z" fill="#808184"/>
<path d="M597.999 408.1H532.499V410.5H597.999V408.1Z" fill="#808184"/>
<path d="M453 401.2C453 404.1 450.7 406.4 447.8 406.4C444.9 406.4 442.6 404.1 442.6 401.2C442.6 398.3 444.9 396 447.8 396C450.7 396 453 398.3 453 401.2Z" fill="#E6E6E6"/>
<path d="M23.6997 452.2C23.6997 452.2 24.2997 452 25.3997 451.7C26.3997 451.4 27.9997 451.1 29.8997 450.7C31.7997 450.3 34.0997 450 36.7997 449.6C39.3997 449.3 42.3997 449 45.6997 448.9C48.8997 448.7 52.4997 448.7 56.0997 448.8C59.7997 448.8 63.6997 448.9 67.6997 448.9C71.6997 448.9 75.8997 449 80.0997 449C84.2997 449 88.5997 449 92.8997 449C97.1997 449 101.5 449 105.7 448.9C109.9 448.9 114.1 448.8 118.1 448.8C126.1 448.7 133.6 448.6 140 448.5C140.4 448.5 140.8 448.5 141.2 448.5C141.6 448.5 142 448.5 142.4 448.5C142.8 448.5 143.2 448.5 143.5 448.5C143.9 448.5 144.3 448.6 144.7 448.6C146.2 448.7 147.7 448.9 149 449.2C151.7 449.7 154 450.4 155.8 451.1C159.5 452.5 161.6 453.7 161.7 453.7C162.8 454.6 163 456.3 162.1 457.4C161.2 458.5 159.5 458.7 158.4 457.8C158.5 457.9 157.2 456.3 154.2 454.4C152.7 453.5 150.7 452.5 148.3 451.7C147.1 451.3 145.8 451 144.4 450.8C144.1 450.8 143.7 450.7 143.4 450.7C143 450.7 142.7 450.7 142.3 450.6C141.9 450.6 141.6 450.6 141.2 450.5C140.8 450.5 140.4 450.5 140 450.5C133.6 450.4 126.1 450.3 118.1 450.2C114.1 450.2 109.9 450.1 105.7 450.1C101.5 450.1 97.1997 450 92.8997 450C88.5997 450 84.2997 450 80.0997 450C75.8997 450 71.6997 450.1 67.6997 450.1C63.6997 450.1 59.7997 450.2 56.0997 450.2C52.3997 450.2 48.9997 450.3 45.7997 450.6C42.5997 450.9 39.7997 451.5 37.2997 452.1C34.7997 452.7 32.6997 453.5 30.9997 454.1C29.2997 454.8 28.0997 455.4 27.1997 455.9C26.3997 456.4 26.0997 456.6 25.9997 456.6C24.6997 457.2 23.0997 456.7 22.4997 455.3C21.7997 454.4 22.2997 452.8 23.6997 452.2Z" fill="#929497"/>
<path d="M24.5001 453.9C24.5001 453.9 26.6001 453.2 30.2001 452.4C32.0001 452 34.3001 451.5 36.8001 451.1C39.4001 450.7 42.3001 450.3 45.5001 450C48.7001 449.7 52.2001 449.6 55.9001 449.6C59.6001 449.6 63.4001 449.6 67.5001 449.6C75.5001 449.6 84.1001 449.6 92.6001 449.6C101.2 449.6 109.7 449.6 117.7 449.5C125.7 449.5 133.2 449.4 139.6 449.4C140.4 449.4 141.2 449.4 142 449.4C142.8 449.4 143.5 449.5 144.3 449.5C145.8 449.6 147.2 449.9 148.4 450.2C151 450.8 153.1 451.6 154.9 452.4C156.6 453.2 158 453.9 158.8 454.4C159.2 454.7 159.6 454.9 159.8 455C160 455.2 160.2 455.2 160.2 455.2C160.6 455.4 160.6 455.9 160.4 456.3C160.2 456.7 159.7 456.7 159.3 456.5C159.3 456.5 159.3 456.5 159.2 456.5C159.2 456.5 159.1 456.4 158.9 456.3C158.7 456.1 158.4 455.9 158 455.6C157.2 455 156 454.2 154.4 453.4C152.8 452.6 150.7 451.7 148.2 451C145.7 450.3 142.8 450 139.6 450C133.2 450 125.7 449.9 117.7 449.9C109.7 449.9 101.1 449.9 92.6001 449.8C84.0001 449.8 75.5001 449.8 67.5001 449.8C63.5001 449.8 59.6001 449.8 55.9001 449.8C52.2001 449.8 48.8001 450 45.6001 450.4C42.4001 450.7 39.5001 451.2 37.0001 451.8C34.5001 452.3 32.3001 452.9 30.5001 453.4C26.9001 454.4 25.0001 455.3 25.0001 455.3C24.6001 455.5 24.2001 455.3 24.0001 454.9C23.9001 454.5 24.1001 454.1 24.5001 453.9Z" fill="#A7A9AC"/>
<path d="M18.7996 458.3L25.7996 354.5C25.7996 354.1 26.0996 353.9 26.4996 353.9C26.7996 353.9 27.0996 354.2 27.0996 354.6L24.1996 458.6C24.1996 460.1 22.8996 461.2 21.3996 461.2C19.8996 461.2 18.7996 459.9 18.7996 458.5C18.6996 458.3 18.6996 458.3 18.7996 458.3Z" fill="#BDBDBF"/>
<g opacity="0.3">
<path opacity="0.3" d="M20.5996 461.3L25.7996 354.5C25.7996 354.2 26.0996 354 26.3996 354C26.6996 354 26.8996 354.3 26.8996 354.6L22.0996 461.4C22.0996 461.8 21.6996 462.2 21.2996 462.1C20.9996 462.1 20.5996 461.7 20.5996 461.3Z" fill="white"/>
</g>
<path d="M158.699 458.7L157.399 354.5C157.399 354.1 157.699 353.9 157.999 353.8C158.299 353.8 158.599 354.1 158.699 354.4L164.099 458.4C164.199 459.9 162.999 461.1 161.599 461.2C160.199 461.3 158.899 460.1 158.799 458.7C158.699 458.8 158.699 458.7 158.699 458.7Z" fill="#BDBDBF"/>
<g opacity="0.3">
<path opacity="0.3" d="M160.7 461.6L157.6 354.6C157.6 354.3 157.8 354 158.1 354C158.4 354 158.7 354.2 158.7 354.5L162.2 461.5C162.2 461.9 161.9 462.3 161.4 462.3C161.1 462.3 160.7 462 160.7 461.6Z" fill="white"/>
</g>
<path d="M22.6996 357C21.5996 357 20.5996 356.1 20.5996 354.9C20.5996 353.8 21.4996 352.8 22.6996 352.8H162.1C163.2 352.8 164.2 353.7 164.2 354.9C164.2 356 163.3 357 162.1 357H22.6996Z" fill="#26231F"/>
<path d="M161.799 355H22.6992" stroke="#434343" stroke-width="0.5427" stroke-miterlimit="10" stroke-linecap="round"/>
<path d="M160.3 371.5C160.3 375.6 163.6 379 167.8 379H176C180.1 379 183.4 375.7 183.4 371.5V342.8C183.4 338.7 180.1 335.4 176 335.4H167.8C163.7 335.4 160.3 338.7 160.3 342.8V371.5Z" fill="#26231F"/>
<path d="M180.9 340C180.9 340.7 180.3 341.2 179.7 341.2H164.2C163.5 341.2 163 340.7 163 340C163 339.3 163.6 338.8 164.2 338.8H179.7C180.4 338.8 180.9 339.4 180.9 340Z" fill="#434343"/>
<path d="M180.9 343.9C180.9 344.6 180.3 345.1 179.7 345.1H164.2C163.5 345.1 163 344.6 163 343.9C163 343.2 163.6 342.7 164.2 342.7H179.7C180.4 342.6 180.9 343.2 180.9 343.9Z" fill="#434343"/>
<path d="M180.9 347.7C180.9 348.4 180.3 348.9 179.7 348.9H164.2C163.5 348.9 163 348.4 163 347.7C163 347 163.6 346.5 164.2 346.5H179.7C180.4 346.4 180.9 347 180.9 347.7Z" fill="#434343"/>
<path d="M180.9 351.5C180.9 352.2 180.3 352.7 179.7 352.7H164.2C163.5 352.7 163 352.1 163 351.5C163 350.8 163.6 350.3 164.2 350.3H179.7C180.4 350.2 180.9 350.8 180.9 351.5Z" fill="#434343"/>
<path d="M180.9 355.3C180.9 356 180.3 356.5 179.7 356.5H164.2C163.5 356.5 163 356 163 355.3C163 354.6 163.6 354.1 164.2 354.1H179.7C180.4 354.1 180.9 354.6 180.9 355.3Z" fill="#434343"/>
<path d="M180.9 359.1C180.9 359.8 180.3 360.3 179.7 360.3H164.2C163.5 360.3 163 359.8 163 359.1C163 358.4 163.6 357.9 164.2 357.9H179.7C180.4 357.9 180.9 358.4 180.9 359.1Z" fill="#434343"/>
<path d="M180.9 362.9C180.9 363.6 180.3 364.1 179.7 364.1H164.2C163.5 364.1 163 363.6 163 362.9C163 362.2 163.6 361.7 164.2 361.7H179.7C180.4 361.7 180.9 362.2 180.9 362.9Z" fill="#434343"/>
<path d="M180.9 366.7C180.9 367.4 180.3 367.9 179.7 367.9H164.2C163.5 367.9 163 367.4 163 366.7C163 366 163.6 365.5 164.2 365.5H179.7C180.4 365.5 180.9 366 180.9 366.7Z" fill="#434343"/>
<path d="M180.9 370.5C180.9 371.2 180.3 371.7 179.7 371.7H164.2C163.5 371.7 163 371.2 163 370.5C163 369.8 163.6 369.3 164.2 369.3H179.7C180.4 369.3 180.9 369.9 180.9 370.5Z" fill="#434343"/>
<path d="M180.9 374.3C180.9 375 180.3 375.5 179.7 375.5H164.2C163.5 375.5 163 375 163 374.3C163 373.6 163.6 373.1 164.2 373.1H179.7C180.4 373.1 180.9 373.7 180.9 374.3Z" fill="#434343"/>
<path d="M0 371.5C0 375.6 3.3 379 7.4 379H15.6C19.7 379 23 375.7 23 371.5V342.8C23 338.7 19.7 335.4 15.6 335.4H7.4C3.3 335.4 0 338.7 0 342.8V371.5Z" fill="#26231F"/>
<path d="M20.6002 340C20.6002 340.7 20.0002 341.2 19.4002 341.2H3.9002C3.2002 341.2 2.7002 340.7 2.7002 340C2.7002 339.3 3.3002 338.8 3.9002 338.8H19.4002C20.0002 338.8 20.6002 339.4 20.6002 340Z" fill="#434343"/>
<path d="M20.6002 343.9C20.6002 344.6 20.0002 345.1 19.4002 345.1H3.9002C3.2002 345.1 2.7002 344.6 2.7002 343.9C2.7002 343.2 3.3002 342.7 3.9002 342.7H19.4002C20.0002 342.6 20.6002 343.2 20.6002 343.9Z" fill="#434343"/>
<path d="M20.6002 347.7C20.6002 348.4 20.0002 348.9 19.4002 348.9H3.9002C3.2002 348.9 2.7002 348.4 2.7002 347.7C2.7002 347 3.3002 346.5 3.9002 346.5H19.4002C20.0002 346.4 20.6002 347 20.6002 347.7Z" fill="#434343"/>
<path d="M20.6002 351.5C20.6002 352.2 20.0002 352.7 19.4002 352.7H3.9002C3.2002 352.7 2.7002 352.1 2.7002 351.5C2.7002 350.8 3.3002 350.3 3.9002 350.3H19.4002C20.0002 350.2 20.6002 350.8 20.6002 351.5Z" fill="#434343"/>
<path d="M20.6002 355.3C20.6002 356 20.0002 356.5 19.4002 356.5H3.9002C3.2002 356.5 2.7002 356 2.7002 355.3C2.7002 354.6 3.3002 354.1 3.9002 354.1H19.4002C20.0002 354.1 20.6002 354.6 20.6002 355.3Z" fill="#434343"/>
<path d="M20.6002 359.1C20.6002 359.8 20.0002 360.3 19.4002 360.3H3.9002C3.2002 360.3 2.7002 359.8 2.7002 359.1C2.7002 358.4 3.3002 357.9 3.9002 357.9H19.4002C20.0002 357.9 20.6002 358.4 20.6002 359.1Z" fill="#434343"/>
<path d="M20.6002 362.9C20.6002 363.6 20.0002 364.1 19.4002 364.1H3.9002C3.2002 364.1 2.7002 363.6 2.7002 362.9C2.7002 362.2 3.3002 361.7 3.9002 361.7H19.4002C20.0002 361.7 20.6002 362.2 20.6002 362.9Z" fill="#434343"/>
<path d="M20.6002 366.7C20.6002 367.4 20.0002 367.9 19.4002 367.9H3.9002C3.2002 367.9 2.7002 367.4 2.7002 366.7C2.7002 366 3.3002 365.5 3.9002 365.5H19.4002C20.0002 365.5 20.6002 366 20.6002 366.7Z" fill="#434343"/>
<path d="M20.6002 370.5C20.6002 371.2 20.0002 371.7 19.4002 371.7H3.9002C3.2002 371.7 2.7002 371.2 2.7002 370.5C2.7002 369.8 3.3002 369.3 3.9002 369.3H19.4002C20.0002 369.3 20.6002 369.9 20.6002 370.5Z" fill="#434343"/>
<path d="M20.6002 374.3C20.6002 375 20.0002 375.5 19.4002 375.5H3.9002C3.2002 375.5 2.7002 375 2.7002 374.3C2.7002 373.6 3.3002 373.1 3.9002 373.1H19.4002C20.0002 373.1 20.6002 373.7 20.6002 374.3Z" fill="#434343"/>
<path d="M140.7 434.1C140.7 436.1 139.1 437.8 137 437.8H111.2C109.2 437.8 107.5 436.2 107.5 434.1V427.6C107.5 425.6 109.1 423.9 111.2 423.9H137C139 423.9 140.7 425.5 140.7 427.6V434.1Z" fill="white"/>
<path d="M160.9 427.2C160.9 429.3 159.2 430.9 157.2 430.9H27.4002C25.3002 430.9 23.7002 429.2 23.7002 427.2L28.3002 359.8C28.3002 357.7 30.0002 356.1 32.0002 356.1H152.5C154.6 356.1 156.2 357.8 156.2 359.8L160.9 427.2Z" fill="#828282"/>
<path d="M73.6998 433.3C73.6998 434.8 72.4998 436 70.9998 436H44.4998C42.9998 436 41.7998 434.8 41.7998 433.3V428.5C41.7998 427 42.9998 425.8 44.4998 425.8H70.9998C72.4998 425.8 73.6998 427 73.6998 428.5V433.3Z" fill="#3874A3"/>
<path d="M159.9 426.1C159.9 428.1 158.3 429.8 156.2 429.8H28.2C26.2 429.8 24.5 428.2 24.5 426.1L28.2 359.7C28.2 357.7 29.8 356 31.9 356H152.6C154.6 356 156.3 357.6 156.3 359.7L159.9 426.1Z" fill="#9AB7C5"/>
<path opacity="0.3" d="M28.3002 429.8H156.3C158.3 429.8 160 428.2 160 426.1L156.3 359.7C156.3 357.7 154.7 356 152.6 356H72.6002C56.2002 376.1 39.9002 400.2 25.7002 428.6C26.3002 429.4 27.2002 429.8 28.3002 429.8Z" fill="#E6E6E6"/>
<path d="M75.9998 282C75.9998 284 74.3998 285.7 72.2998 285.7H46.4998C44.4998 285.7 42.7998 284.1 42.7998 282V275.5C42.7998 273.5 44.3998 271.8 46.4998 271.8H72.2998C74.2998 271.8 75.9998 273.4 75.9998 275.5V282Z" fill="#3874A3"/>
<path d="M156.3 349.7C156.3 351.7 154.7 353.4 152.6 353.4H31.9C29.9 353.4 28.2 351.8 28.2 349.7L24.5 283.3C24.5 281.3 26.1 279.6 28.2 279.6H156.2C158.2 279.6 159.9 281.2 159.9 283.3L156.3 349.7Z" fill="#A9CCDE"/>
<path opacity="0.8" d="M156.3 349.7L160 283.3C160 281.4 158.6 279.8 156.7 279.6C142.2 288.8 108.7 312.5 74.7998 353.3H152.6C154.6 353.4 156.3 351.7 156.3 349.7Z" fill="#E6E6E6"/>
<path d="M140.7 282.9C140.7 284.9 139.1 286.6 137 286.6H111.2C109.2 286.6 107.5 285 107.5 282.9V276.4C107.5 274.4 109.1 272.7 111.2 272.7H137C139 272.7 140.7 274.3 140.7 276.4V282.9Z" fill="white"/>
<path d="M75.9998 282C75.9998 284 74.3998 285.7 72.2998 285.7H46.4998C44.4998 285.7 42.7998 284.1 42.7998 282V275.5C42.7998 273.5 44.3998 271.8 46.4998 271.8H72.2998C74.2998 271.8 75.9998 273.4 75.9998 275.5V282Z" fill="#3874A3"/>
<path d="M156.3 349.7C156.3 351.7 154.7 353.4 152.6 353.4H31.9C29.9 353.4 28.2 351.8 28.2 349.7L24.5 283.3C24.5 281.3 26.1 279.6 28.2 279.6H156.2C158.2 279.6 159.9 281.2 159.9 283.3L156.3 349.7Z" fill="#A9CCDE"/>
<path opacity="0.8" d="M156.3 349.7L160 283.3C160 281.4 158.6 279.8 156.7 279.6C142.2 288.8 108.7 312.5 74.7998 353.3H152.6C154.6 353.4 156.3 351.7 156.3 349.7Z" fill="#E6E6E6"/>
<path d="M78.8996 366.4C78.8996 368 77.5996 369.3 75.9996 369.3C74.3996 369.3 73.0996 368 73.0996 366.4V343.9C73.0996 342.3 74.3996 341 75.9996 341C77.5996 341 78.8996 342.3 78.8996 343.9V366.4Z" fill="#26231F"/>
<path d="M76 344.3V366.2" stroke="#434343" stroke-width="0.7757" stroke-miterlimit="10" stroke-linecap="round"/>
<path d="M110.499 366.4C110.499 368 109.199 369.3 107.599 369.3C105.999 369.3 104.699 368 104.699 366.4V343.9C104.699 342.3 105.999 341 107.599 341C109.199 341 110.499 342.3 110.499 343.9V366.4Z" fill="#26231F"/>
<path d="M107.6 344.3V366.2" stroke="#434343" stroke-width="0.7757" stroke-miterlimit="10" stroke-linecap="round"/>
<path d="M96.8996 382.2C96.8996 384.6 94.8996 386.6 92.4996 386.6C90.0996 386.6 88.0996 384.6 88.0996 382.2H96.8996Z" fill="#26231F"/>
<path d="M1281.3 461H1220.7L1212.3 358.2H1289.8L1281.3 461Z" fill="#E6E6E6"/>
<path d="M1289.8 356.3H1212.3L1217 343H1286.1L1289.8 356.3Z" fill="#221F1F"/>
<path d="M1284.5 361.2C1284.5 361.2 1280.3 434 1238.7 461.1C1259.4 461.1 1281.3 461.1 1281.3 461.1L1289.8 361.2H1284.5V361.2Z" fill="#F2F2F2"/>
<path d="M1289.5 363.8L1212.6 362.6L1212 355.9H1290.3L1289.5 363.8Z" fill="#E6E6E5"/>
<path d="M1294.1 353.3H1208.6V361.2H1294.1V353.3Z" fill="#332828"/>
<path d="M1291.5 357.2C1291.5 357.8 1291 358.3 1290.4 358.3H1211C1210.4 358.3 1209.9 357.8 1209.9 357.2C1209.9 356.6 1210.4 356.1 1211 356.1H1290.5C1291 356.1 1291.5 356.6 1291.5 357.2Z" fill="#434243"/>
<path d="M1256.5 396.3C1256.5 397.9 1255.2 399.1 1253.7 399.1C1252.1 399.1 1250.9 397.8 1250.9 396.3C1250.9 394.8 1252.2 393.5 1253.7 393.5C1255.3 393.5 1256.5 394.7 1256.5 396.3Z" fill="#332828"/>
<path d="M1235.6 396.3C1235.6 397.9 1234.3 399.1 1232.8 399.1C1231.2 399.1 1230 397.8 1230 396.3C1230 394.8 1231.3 393.5 1232.8 393.5C1234.4 393.5 1235.6 394.7 1235.6 396.3Z" fill="#332828"/>
<path d="M1245.9 406.8C1245.9 408.6 1244.4 410.1 1242.6 410.1C1240.8 410.1 1239.3 408.6 1239.3 406.8H1245.9Z" fill="#332828"/>
<path d="M1222.6 336.2C1222.6 336.2 1217.6 332.3 1219 320.6C1220 312.5 1231.8 304.9 1221.3 288.9" stroke="white" stroke-width="6" stroke-miterlimit="10" stroke-linecap="round"/>
<rect x="618" y="47" width="95.9514" height="25" fill="url(#pattern0)"/>
</g>
<defs>
<pattern id="pattern0" patternContentUnits="objectBoundingBox" width="1" height="1">
<use xlink:href="#image0" transform="scale(0.00105485 0.00404858)"/>
</pattern>
<linearGradient id="paint0_linear" x1="983.095" y1="445.55" x2="1078.71" y2="445.55" gradientUnits="userSpaceOnUse">
<stop stop-color="#A8B7BD"/>
<stop offset="1" stop-color="white"/>
</linearGradient>
<clipPath id="clip0">
<rect width="1294.1" height="462.3" fill="white"/>
</clipPath>

</defs>
</svg>
