<svg xmlns="http://www.w3.org/2000/svg" class="mr-homepage-feature-icon mr-homepage-feature-icon-pitch" viewBox="-312.8 0.4 600 600"><path fill="#386F94" d="M-108,413.4l183.3-0.1"/><path fill="#386F94" d="M93.9,441.4l131.8-145.8l39.4-41.8L7.9,47.3c-6-4.8-13.2-7.2-20.4-7.2c-7.2,0-14.5,2.4-20.4,7.2&#10;        l-257.2,206.5l38.6,49.8L-121,441.4"/><g class="mr-homepage-feature-icon-pitch-letter"><rect x="-200.6" y="46" fill="#E7E9ED" width="348.3" height="16.4"/><rect x="-200.6" y="85.2" fill="#E7E9ED" width="348.3" height="16.4"/><rect x="-200.6" y="124.4" fill="#E7E9ED" width="348.3" height="16.4"/><rect x="-200.6" y="163.6" fill="#E7E9ED" width="348.3" height="16.4"/><rect x="-200.6" y="202.8" fill="#E7E9ED" width="348.3" height="16.4"/><rect x="-200.6" y="242" fill="#E7E9ED" width="348.3" height="16.4"/><rect x="-200.6" y="281.2" fill="#E7E9ED" width="188.6" height="16.4"/><path fill="#CAE8F4" d="M-108,413.4l183.5-0.1l132.7-112.7V299V22.5c0-12.2-9.9-22.1-22-22.1h-396.4c-12.2,0-22,9.9-22,22.1v277.9&#10;            v1L-108,413.4z"/><rect x="-200.6" y="49.7" fill="#FFFFFF" width="348.3" height="16.4"/><rect x="-200.6" y="88.9" fill="#FFFFFF" width="348.3" height="16.4"/><rect x="-200.6" y="128.1" fill="#FFFFFF" width="348.3" height="16.4"/><rect x="-200.6" y="167.3" fill="#FFFFFF" width="348.3" height="16.4"/><rect x="-200.6" y="206.5" fill="#FFFFFF" width="348.3" height="16.4"/><rect x="-200.6" y="245.7" fill="#FFFFFF" width="348.3" height="16.4"/><rect x="-200.6" y="284.9" fill="#FFFFFF" width="188.6" height="16.4"/></g><path fill="#5598B5" d="M208.3,300.6L208.3,300.6L75.5,413.3l-183.5,0.1l-124.2-112.1l0,0l-58.3-47.8v307.3&#10;        c0,21.8,17.7,39.5,39.6,39.5h476.2c21.8,0,39.6-17.7,39.6-39.5V253.5L208.3,300.6z"/><path fill="#386F94" d="M-121.3,401l-158.3,187c0.2,0.2,0.4,0.5,0.6,0.7l171-175.3"/><path fill="#386F94" d="M75.3,413.3l178,175.4c0.2-0.2,0.4-0.5,0.6-0.7L89.7,400.6"/></svg>